<svg xmlns="http://www.w3.org/2000/svg" viewBox="4.996337890625 149.49627380371095 554.1596657714844 247.99967041015628"><rect height="100%" width="100%" x="4.996337890625" y="149.49627380371095" fill="rgba(20, 27, 56, 1)"/> <svg xmlns="http://www.w3.org/2000/svg" viewBox="-0.0000457763671875 -0.000004291534423828125 128.00042724609375 127.99996948242188" fill="none" height="107.99967041015626" width="108" y="219.49627380371095" x="74.996337890625" preserveAspectRatio="xMinYMin" style="overflow: visible;"><path fill-rule="evenodd" clip-rule="evenodd" d="M41.8959 11.4604C29.506 16.673 19.3569 26.0965 13.2413 38.0664C7.12565 50.0364 5.43698 63.7825 8.47355 76.8767C11.5101 89.9709 19.0766 101.571 29.8364 109.627C40.5961 117.684 53.857 121.678 67.2765 120.906C80.6959 120.133 93.4107 114.643 103.175 105.405C112.939 96.1665 119.124 83.775 120.637 70.4187C122.151 57.0625 118.896 43.6011 111.447 32.4122C110.376 30.8031 110.812 28.6304 112.421 27.5591C114.03 26.4879 116.203 26.9239 117.274 28.5329C125.638 41.0959 129.293 56.2105 127.593 71.207C125.893 86.2035 118.949 100.117 107.986 110.489C97.0225 120.862 82.7463 127.027 67.6788 127.894C52.6113 128.762 37.722 124.276 25.6408 115.231C13.5596 106.185 5.064 93.1603 1.65451 78.458C-1.75498 63.7557 0.14108 48.3215 7.00777 34.8816C13.8745 21.4417 25.2699 10.8609 39.1814 5.00821C53.0928 -0.844524 68.625 -1.59261 83.0345 2.8961C84.8801 3.471 85.9101 5.43314 85.3352 7.27867C84.7603 9.1242 82.7982 10.1542 80.9526 9.57934C68.1192 5.58159 54.2858 6.24785 41.8959 11.4604ZM105 16.25C105 18.3211 103.321 20 101.25 20C99.1789 20 97.5 18.3211 97.5 16.25C97.5 14.1789 99.1789 12.5 101.25 12.5C103.321 12.5 105 14.1789 105 16.25ZM51.9066 52.3733C55.1733 49.1067 59.1333 47.472 63.7733 47.472C68.4133 47.472 72.3598 49.1067 75.6265 52.3733C78.8932 55.6427 80.5333 59.596 80.5333 64.2347V77.9053C80.5333 79.6147 79.1466 81 77.4399 81C75.1866 81 73.3466 79.168 73.3466 76.908V64.1987C73.3466 62.0867 72.6932 60 71.3598 58.3627C69.1465 55.6493 66.3066 54.4253 62.8666 54.692C60.9066 54.8427 59.0399 55.64 57.5733 56.9307C55.3199 58.9 54.1865 61.336 54.1865 64.2347V77.2893C54.1865 79.3387 52.5332 81 50.4799 81C48.5599 81 47 79.444 47 77.524V64.2347C47 59.596 48.6399 55.6427 51.9066 52.3733Z" fill="url(#paint0_linear_454_13208)" style="fill: url(#paint0_linear_454_13208);"></path><linearGradient id="paint0_linear_454_13208" x1="104" y1="12.5" x2="32" y2="117.5" gradientUnits="userSpaceOnUse" style=""><stop stop-color="#B382E8"></stop><stop offset="0.9375" stop-color="#5D65E6"></stop></linearGradient></svg> <svg x="202.996" y="252.0650003814697" viewBox="4.679999828338623 5.199999809265137 286.1600036621094 40.869998931884766" height="40.869998931884766" width="286.1600036621094" style="overflow: visible;"><g fill="#ffffff" fill-opacity="1" style=""><path d="M28.70 45.86L28.70 45.86Q27.56 45.86 26.81 45.11Q26.05 44.36 26.05 43.21L26.05 43.21L26.05 30.42Q26.05 27.46 24.96 25.58Q23.87 23.71 22.02 22.80Q20.18 21.89 17.78 21.89L17.78 21.89Q15.60 21.89 13.83 22.78Q12.06 23.66 11.02 25.14Q9.98 26.62 9.98 28.55L9.98 28.55L6.71 28.55Q6.71 25.27 8.29 22.70Q9.88 20.12 12.64 18.62Q15.39 17.11 18.82 17.11L18.82 17.11Q22.41 17.11 25.25 18.64Q28.08 20.18 29.72 23.14Q31.36 26.10 31.36 30.42L31.36 30.42L31.36 43.21Q31.36 44.36 30.60 45.11Q29.85 45.86 28.70 45.86ZM7.33 45.86L7.33 45.86Q6.19 45.86 5.43 45.11Q4.68 44.36 4.68 43.21L4.68 43.21L4.68 20.02Q4.68 18.82 5.43 18.10Q6.19 17.37 7.33 17.37L7.33 17.37Q8.53 17.37 9.26 18.10Q9.98 18.82 9.98 20.02L9.98 20.02L9.98 43.21Q9.98 44.36 9.26 45.11Q8.53 45.86 7.33 45.86ZM52.10 46.07L52.10 46.07Q48.52 46.07 45.68 44.54Q42.85 43.00 41.21 40.04Q39.57 37.08 39.57 32.76L39.57 32.76L39.57 19.97Q39.57 18.82 40.33 18.07Q41.08 17.32 42.22 17.32L42.22 17.32Q43.37 17.32 44.12 18.07Q44.88 18.82 44.88 19.97L44.88 19.97L44.88 32.76Q44.88 35.67 45.97 37.57Q47.06 39.47 48.93 40.38Q50.80 41.29 53.14 41.29L53.14 41.29Q55.38 41.29 57.12 40.40Q58.86 39.52 59.90 38.01Q60.94 36.50 60.94 34.63L60.94 34.63L64.22 34.63Q64.22 37.86 62.63 40.46Q61.05 43.06 58.32 44.56Q55.59 46.07 52.10 46.07ZM63.60 45.81L63.60 45.81Q62.45 45.81 61.70 45.06Q60.94 44.30 60.94 43.16L60.94 43.16L60.94 19.97Q60.94 18.77 61.70 18.04Q62.45 17.32 63.60 17.32L63.60 17.32Q64.79 17.32 65.52 18.04Q66.25 18.77 66.25 19.97L66.25 19.97L66.25 43.16Q66.25 44.30 65.52 45.06Q64.79 45.81 63.60 45.81ZM82.47 45.81L82.37 45.81Q80.08 45.81 78.31 44.56Q76.54 43.32 75.56 41.16Q74.57 39.00 74.57 36.19L74.57 36.19L74.57 7.80Q74.57 6.66 75.30 5.93Q76.02 5.20 77.17 5.20L77.17 5.20Q78.31 5.20 79.04 5.93Q79.77 6.66 79.77 7.80L79.77 7.80L79.77 36.19Q79.77 38.12 80.50 39.36Q81.22 40.61 82.37 40.61L82.37 40.61L83.67 40.61Q84.71 40.61 85.36 41.34Q86.01 42.07 86.01 43.21L86.01 43.21Q86.01 44.36 85.02 45.08Q84.03 45.81 82.47 45.81L82.47 45.81ZM98.07 45.81L97.97 45.81Q95.68 45.81 93.91 44.56Q92.14 43.32 91.16 41.16Q90.17 39.00 90.17 36.19L90.17 36.19L90.17 7.80Q90.17 6.66 90.90 5.93Q91.62 5.20 92.77 5.20L92.77 5.20Q93.91 5.20 94.64 5.93Q95.37 6.66 95.37 7.80L95.37 7.80L95.37 36.19Q95.37 38.12 96.10 39.36Q96.82 40.61 97.97 40.61L97.97 40.61L99.27 40.61Q100.31 40.61 100.96 41.34Q101.61 42.07 101.61 43.21L101.61 43.21Q101.61 44.36 100.62 45.08Q99.63 45.81 98.07 45.81L98.07 45.81ZM134.94 46.02L134.94 46.02Q130.88 46.02 127.63 44.12Q124.38 42.22 122.49 38.95Q120.59 35.67 120.59 31.56L120.59 31.56Q120.59 27.46 122.33 24.21Q124.07 20.96 127.09 19.06Q130.10 17.16 133.90 17.16L133.90 17.16Q136.97 17.16 139.57 18.43Q142.17 19.71 143.94 21.89L143.94 21.89L143.94 7.85Q143.94 6.66 144.69 5.93Q145.44 5.20 146.59 5.20L146.59 5.20Q147.78 5.20 148.51 5.93Q149.24 6.66 149.24 7.85L149.24 7.85L149.24 31.56Q149.24 35.67 147.34 38.95Q145.44 42.22 142.22 44.12Q139.00 46.02 134.94 46.02ZM134.94 41.34L134.94 41.34Q137.59 41.34 139.67 40.07Q141.75 38.79 142.95 36.56Q144.14 34.32 144.14 31.56L144.14 31.56Q144.14 28.76 142.95 26.57Q141.75 24.39 139.67 23.11Q137.59 21.84 134.94 21.84L134.94 21.84Q132.34 21.84 130.23 23.11Q128.13 24.39 126.91 26.57Q125.68 28.76 125.68 31.56L125.68 31.56Q125.68 34.32 126.91 36.56Q128.13 38.79 130.23 40.07Q132.34 41.34 134.94 41.34ZM171.96 46.02L171.96 46.02Q167.65 46.02 164.29 44.17Q160.94 42.33 159.04 39.08Q157.14 35.83 157.14 31.62L157.14 31.62Q157.14 27.35 158.94 24.10Q160.73 20.85 163.90 19.01Q167.08 17.16 171.18 17.16L171.18 17.16Q175.24 17.16 178.15 18.95Q181.06 20.75 182.60 23.89Q184.13 27.04 184.13 31.15L184.13 31.15Q184.13 32.14 183.46 32.79Q182.78 33.44 181.74 33.44L181.74 33.44L160.78 33.44L160.78 29.28L181.58 29.28L179.45 30.73Q179.40 28.13 178.41 26.08Q177.42 24.02 175.60 22.83Q173.78 21.63 171.18 21.63L171.18 21.63Q168.22 21.63 166.11 22.93Q164.01 24.23 162.92 26.49Q161.82 28.76 161.82 31.62L161.82 31.62Q161.82 34.48 163.12 36.71Q164.42 38.95 166.71 40.25Q169.00 41.55 171.96 41.55L171.96 41.55Q173.58 41.55 175.27 40.95Q176.96 40.35 178.00 39.57L178.00 39.57Q178.78 39.00 179.69 38.97Q180.60 38.95 181.27 39.52L181.27 39.52Q182.16 40.30 182.21 41.24Q182.26 42.17 181.38 42.85L181.38 42.85Q179.61 44.25 176.98 45.14Q174.36 46.02 171.96 46.02ZM199.47 45.76L199.47 45.76Q197.86 45.76 196.98 44.04L196.98 44.04L185.95 20.80Q185.54 19.92 185.87 19.06Q186.21 18.20 187.20 17.73L187.20 17.73Q188.08 17.26 188.99 17.58Q189.90 17.89 190.37 18.77L190.37 18.77L200.67 40.98L198.17 40.98L208.36 18.77Q208.83 17.89 209.79 17.58Q210.76 17.26 211.74 17.73L211.74 17.73Q212.68 18.15 212.99 19.03Q213.30 19.92 212.89 20.80L212.89 20.80L201.86 44.04Q201.08 45.76 199.47 45.76ZM221.52 45.81L221.52 45.81Q220.38 45.81 219.62 45.06Q218.87 44.30 218.87 43.16L218.87 43.16L218.87 20.02Q218.87 18.82 219.62 18.10Q220.38 17.37 221.52 17.37L221.52 17.37Q222.72 17.37 223.44 18.10Q224.17 18.82 224.17 20.02L224.17 20.02L224.17 43.16Q224.17 44.30 223.44 45.06Q222.72 45.81 221.52 45.81ZM221.52 12.74L221.52 12.74Q220.12 12.74 219.10 11.73Q218.09 10.71 218.09 9.31L218.09 9.31Q218.09 7.90 219.10 6.89Q220.12 5.88 221.52 5.88L221.52 5.88Q222.92 5.88 223.94 6.89Q224.95 7.90 224.95 9.31L224.95 9.31Q224.95 10.71 223.94 11.73Q222.92 12.74 221.52 12.74ZM246.95 46.02L246.95 46.02Q242.79 46.02 239.54 44.12Q236.29 42.22 234.44 38.97Q232.60 35.72 232.60 31.62L232.60 31.62Q232.60 27.40 234.42 24.13Q236.24 20.85 239.41 19.01Q242.58 17.16 246.69 17.16L246.69 17.16Q249.76 17.16 252.30 18.33Q254.85 19.50 256.88 21.84L256.88 21.84Q257.61 22.67 257.40 23.56Q257.19 24.44 256.26 25.12L256.26 25.12Q255.53 25.64 254.64 25.45Q253.76 25.27 253.03 24.54L253.03 24.54Q250.48 21.84 246.69 21.84L246.69 21.84Q244.04 21.84 242.01 23.06Q239.98 24.28 238.84 26.47Q237.69 28.65 237.69 31.62L237.69 31.62Q237.69 34.42 238.86 36.61Q240.03 38.79 242.11 40.07Q244.19 41.34 246.95 41.34L246.95 41.34Q248.77 41.34 250.15 40.90Q251.52 40.46 252.67 39.52L252.67 39.52Q253.50 38.84 254.38 38.77Q255.27 38.69 255.94 39.26L255.94 39.26Q256.83 39.99 256.93 40.90Q257.04 41.81 256.31 42.54L256.31 42.54Q252.56 46.02 246.95 46.02ZM278.67 46.02L278.67 46.02Q274.35 46.02 271.00 44.17Q267.64 42.33 265.75 39.08Q263.85 35.83 263.85 31.62L263.85 31.62Q263.85 27.35 265.64 24.10Q267.44 20.85 270.61 19.01Q273.78 17.16 277.89 17.16L277.89 17.16Q281.94 17.16 284.86 18.95Q287.77 20.75 289.30 23.89Q290.84 27.04 290.84 31.15L290.84 31.15Q290.84 32.14 290.16 32.79Q289.48 33.44 288.44 33.44L288.44 33.44L267.49 33.44L267.49 29.28L288.29 29.28L286.16 30.73Q286.10 28.13 285.12 26.08Q284.13 24.02 282.31 22.83Q280.49 21.63 277.89 21.63L277.89 21.63Q274.92 21.63 272.82 22.93Q270.71 24.23 269.62 26.49Q268.53 28.76 268.53 31.62L268.53 31.62Q268.53 34.48 269.83 36.71Q271.13 38.95 273.42 40.25Q275.70 41.55 278.67 41.55L278.67 41.55Q280.28 41.55 281.97 40.95Q283.66 40.35 284.70 39.57L284.70 39.57Q285.48 39.00 286.39 38.97Q287.30 38.95 287.98 39.52L287.98 39.52Q288.86 40.30 288.91 41.24Q288.96 42.17 288.08 42.85L288.08 42.85Q286.31 44.25 283.69 45.14Q281.06 46.02 278.67 46.02Z" transform="translate(0, 0)"></path></g></svg></svg>